<svg version="1.1" xmlns="http://www.w3.org/2000/svg" xmlns:xlink="http://www.w3.org/1999/xlink" width="500" height="500" viewBox="0,0,256,256"><defs><clipPath id="clip-1"><path d="M0,0h500v500h-500z" id="a" fill="none"></path></clipPath><clipPath id="clip-2"><path d="M0,0h500v500h-500z" id="b" fill="none"></path></clipPath><clipPath id="clip-3"><path d="M0,0h500v500h-500z" id="c" fill="none"></path></clipPath></defs><g fill="none" fill-rule="nonzero" stroke="none" stroke-width="1" stroke-linecap="butt" stroke-linejoin="miter" stroke-miterlimit="10" stroke-dasharray="" stroke-dashoffset="0" font-family="none" font-weight="none" font-size="none" text-anchor="none" style="mix-blend-mode: normal"><g transform="scale(0.512,0.512)"><g clip-path="url(#clip-1)"><g clip-path="url(#clip-2)"><path d="M308.656,174.185c-0.00235,-4.14231 -1.65104,-8.11384 -4.583,-11.04l-75.196,-75.195c-6.25,-6.04 -16.04,-6.04 -22.08,0c-6.04,6.041 -6.249,16.04 0,22.08l48.534,48.534h-157.891c-8.54,0 -15.623,7.082 -15.623,15.622c0,8.54 7.082,15.623 15.623,15.623h157.89l-48.534,48.534c-6.249,6.04 -6.249,16.039 0,22.08c3.125,3.124 7.082,4.582 11.04,4.582c3.958,0 7.915,-1.458 11.04,-4.582l75.196,-75.197c2.93224,-2.92597 4.58098,-6.89762 4.583,-11.04zM402.564,310.206h-157.89l48.533,-48.534c6.04,-6.04 6.04,-16.04 0,-22.08c-6.04,-6.04 -16.04,-6.04 -22.08,0l-75.196,75.196c-6.04,6.041 -6.04,16.04 0,22.08l75.196,75.196c3.125,3.125 7.082,4.583 11.04,4.583c3.958,0 7.915,-1.458 11.04,-4.583c6.04,-6.04 6.04,-16.039 0,-22.08l-48.534,-48.533h157.891c8.54,0 15.623,-7.083 15.623,-15.623c0,-8.54 -7.082,-15.622 -15.623,-15.622z" fill="#00ff00"></path></g><g clip-path="url(#clip-3)" opacity="0"><path d="M254.656,174.402c0,-4.166 -1.666,-8.123 -4.583,-11.04l-67.93,-67.93c-6.249,-6.04 -16.039,-6.04 -22.08,0c-6.04,6.041 -6.248,16.04 0,22.08l41.268,41.268l-120.123,-0.101c-8.54,0 -15.622,7.082 -15.622,15.622c0,8.54 7.082,15.623 15.622,15.623l120.123,0.1l-41.267,41.273c-6.25,6.041 -6.25,16.04 0,22.08c3.124,3.125 7.082,4.583 11.04,4.583c3.957,0 7.915,-1.458 11.04,-4.583l67.93,-67.935c2.93187,-2.92613 4.58024,-6.89776 4.582,-11.04zM418.554,310.322l-119.644,0.075l41.272,-41.272c6.041,-6.041 6.041,-16.04 0,-22.08c-6.04,-6.04 -16.039,-6.04 -22.08,0l-67.934,67.935c-6.041,6.04 -6.041,16.039 0,22.08l67.935,67.935c3.124,3.124 7.082,4.582 11.04,4.582c3.957,0 7.915,-1.458 11.04,-4.582c6.04,-6.041 6.04,-16.04 0,-22.08l-41.273,-41.273l119.644,-0.075c8.54,0 15.622,-7.083 15.622,-15.623c0,-8.54 -7.082,-15.622 -15.622,-15.622z" fill="#00ff00"></path></g><g fill="#000000" opacity="0"><path d="M413.702,480.39h7.885v-33.717l10.498,33.718h6.96l10.715,-33.718v33.718h8.374v-39.32h-13.377l-8.973,28.604l-8.323,-28.605h-13.761v39.32zM379.52,461.029c0,-4.46 0.652,-8.7 2.882,-11.42c1.578,-2.013 4.078,-3.318 7.234,-3.318c4.025,0 7.342,2.121 8.973,6.96c0.816,2.392 0.978,5.113 0.978,7.017c0,6.255 -1.36,9.301 -2.665,11.258c-1.577,2.448 -3.916,3.644 -7.342,3.644c-3.916,0 -5.929,-1.525 -7.125,-3.156c-2.339,-3.046 -2.935,-7.233 -2.935,-10.985zM370.709,461.302c0,3.59 0.546,10.116 4.841,14.684c3.59,3.752 8.753,5.383 13.921,5.383c3.264,0 9.626,-0.705 13.977,-5.6c3.208,-3.59 4.95,-9.681 4.95,-15.393c0,-3.86 -0.816,-10.007 -5.003,-14.793c-3.86,-4.351 -9.628,-5.33 -13.815,-5.33c-14.14,0 -18.871,10.607 -18.871,21.049zM366.885,453.904c0,-7.833 -6.035,-13.051 -14.629,-13.051c-11.041,0 -18.001,8.265 -18.001,20.72c0,9.733 4.404,19.743 17.946,19.743c3.59,0 7.994,-0.817 11.476,-4.407c3.155,-3.264 3.37,-6.905 3.534,-9.243h-8.864c-0.164,5.22 -3.535,7.448 -7.07,7.448c-8.211,0 -8.211,-11.147 -8.211,-13.486c0,-8.103 2.609,-14.629 8.864,-14.629c5.712,0 6.2,5.545 6.364,6.905zM321.418,480.39h6.905v-7.233h-6.905v7.234zM279.295,480.39h7.939v-32.63l15.228,32.63h11.585v-39.32h-7.833v30.944l-14.738,-30.944h-12.18v39.32zM244.458,461.029c0,-4.46 0.653,-8.7 2.883,-11.42c1.577,-2.013 4.078,-3.318 7.233,-3.318c4.025,0 7.343,2.121 8.973,6.96c0.817,2.392 0.979,5.113 0.979,7.017c0,6.255 -1.36,9.301 -2.665,11.258c-1.578,2.448 -3.917,3.644 -7.342,3.644c-3.917,0 -5.927,-1.525 -7.123,-3.156c-2.338,-3.046 -2.938,-7.233 -2.938,-10.985zM235.648,461.302c0,3.59 0.545,10.116 4.841,14.684c3.59,3.752 8.753,5.383 13.92,5.383c3.265,0 9.629,-0.705 13.98,-5.6c3.208,-3.59 4.948,-9.681 4.948,-15.393c0,-3.86 -0.817,-10.007 -5.004,-14.793c-3.86,-4.351 -9.628,-5.33 -13.814,-5.33c-14.141,0 -18.872,10.607 -18.872,21.049zM231.824,453.904c0,-7.833 -6.035,-13.051 -14.63,-13.051c-11.04,0 -18,8.265 -18,20.72c0,9.733 4.403,19.743 17.945,19.743c3.59,0 7.995,-0.817 11.476,-4.407c3.156,-3.264 3.37,-6.905 3.535,-9.243h-8.864c-0.165,5.22 -3.535,7.448 -7.07,7.448c-8.212,0 -8.212,-11.147 -8.212,-13.486c0,-8.103 2.61,-14.629 8.865,-14.629c5.711,0 6.2,5.545 6.363,6.905zM185.593,480.39h8.432v-39.429h-8.432v39.43zM155.415,447.543c4.84,-0.218 7.072,0.053 8.812,0.543c5.276,1.47 7.178,6.581 7.178,12.129c0,1.903 -0.218,7.777 -3.535,11.094c-2.447,2.447 -5.547,2.718 -9.137,2.718c-1.10676,-0.00763 -2.21313,-0.04397 -3.318,-0.109zM146.877,480.391h12.237c3.97,0 5.6,-0.162 7.07,-0.435c7.45,-1.36 13.923,-7.669 13.923,-19.741c0,-5.603 -1.742,-11.803 -6.69,-15.446c-4.73,-3.481 -11.367,-3.537 -13.542,-3.537l-12.998,-0.053zM118.906,447.27h5.656c2.664,0 4.242,0 5.547,0.925c0.76,0.49 2.068,1.74 2.068,4.404c0,2.774 -1.578,4.134 -2.177,4.569c-1.36,1.087 -3.317,1.087 -4.296,1.087h-6.798zM110.585,480.39h8.594v-15.88h7.395c1.413,0 3.482,0 4.243,2.23c0.543,1.522 1.74,11.476 2.12,13.65h9.3c-0.435,-0.652 -0.761,-1.09 -1.196,-2.829c-0.273,-1.087 -0.596,-2.99 -1.196,-7.612c-0.708,-5.113 -1.143,-8.485 -7.071,-9.03c1.903,-0.543 8.214,-2.282 8.214,-9.624c0,-2.556 -0.981,-5.439 -3.428,-7.56c-3.156,-2.72 -7.557,-2.72 -11.909,-2.665h-15.066zM76.403,461.029c0,-4.46 0.653,-8.7 2.883,-11.42c1.577,-2.013 4.078,-3.318 7.233,-3.318c4.025,0 7.342,2.121 8.973,6.96c0.817,2.392 0.979,5.113 0.979,7.017c0,6.255 -1.36,9.301 -2.665,11.258c-1.578,2.448 -3.917,3.644 -7.343,3.644c-3.916,0 -5.928,-1.525 -7.124,-3.156c-2.339,-3.046 -2.936,-7.233 -2.936,-10.985zM67.593,461.302c0,3.59 0.543,10.116 4.838,14.684c3.59,3.752 8.756,5.383 13.924,5.383c3.264,0 9.625,-0.705 13.976,-5.6c3.209,-3.59 4.95,-9.681 4.95,-15.393c0,-3.86 -0.816,-10.007 -5.003,-14.793c-3.86,-4.351 -9.628,-5.33 -13.815,-5.33c-14.14,0 -18.87,10.607 -18.87,21.049zM41.734,480.39h25.452v-6.69h-16.858v-32.577h-8.594v39.268z"></path></g></g></g></g></svg>