<?xml version="1.0" standalone="no"?>
<!DOCTYPE svg PUBLIC "-//W3C//DTD SVG 20010904//EN"
 "http://www.w3.org/TR/2001/REC-SVG-20010904/DTD/svg10.dtd">
<svg version="1.0" xmlns="http://www.w3.org/2000/svg"
 width="512.000000pt" height="512.000000pt" viewBox="0 0 512.000000 512.000000"
 preserveAspectRatio="xMidYMid meet">

<g transform="translate(0.000000,512.000000) scale(0.100000,-0.100000)"
fill="#000000" stroke="none">
<path d="M2895 4265 l-550 -94 -600 0 -600 0 -572 -183 -573 -183 0 -227 c0
-137 4 -228 9 -228 6 0 263 81 572 180 l563 180 593 0 594 0 569 95 569 95
571 0 570 0 0 230 0 230 -582 -1 -583 -1 -550 -93z"/>
<path d="M3540 3753 c-39 -13 -62 -29 -81 -59 -15 -25 -50 -209 -148 -791
l-128 -758 20 -41 20 -41 75 79 c183 191 419 287 682 275 246 -11 456 -108
623 -287 l74 -80 94 0 c70 0 103 5 129 18 48 24 80 75 80 128 l0 44 -84 0
c-75 0 -88 3 -113 24 l-28 24 0 157 0 157 28 24 c24 21 38 24 103 24 41 0 74
4 74 10 0 5 -42 43 -92 84 -51 41 -99 85 -107 98 -8 13 -51 207 -97 431 -70
348 -86 412 -106 434 -48 53 -52 53 -545 52 -252 0 -465 -3 -473 -6z m914 -97
c19 -8 37 -25 44 -42 15 -37 92 -418 92 -457 0 -18 -10 -39 -29 -58 l-29 -29
-510 0 c-493 0 -510 1 -535 20 -13 11 -28 31 -31 44 -3 13 12 126 33 251 40
232 48 256 96 276 11 4 204 8 428 8 325 1 414 -2 441 -13z"/>
<path d="M3631 3393 c-13 -76 -25 -148 -28 -160 l-5 -23 422 0 422 0 -5 23
c-3 12 -18 84 -33 160 l-27 137 -362 0 -362 0 -22 -137z"/>
<path d="M2800 3649 l-465 -78 -599 -1 -598 0 -362 -116 c-198 -63 -382 -122
-409 -130 l-47 -16 0 -258 0 -258 254 -183 255 -184 0 -127 1 -128 67 55 c83
66 224 138 329 167 64 17 107 21 229 21 134 0 159 -2 238 -26 174 -54 316
-142 427 -268 l62 -69 445 0 c420 0 445 1 438 18 -4 9 -12 28 -17 42 -6 19 26
223 126 800 74 426 138 785 141 798 7 19 4 22 -21 21 -16 -1 -238 -37 -494
-80z"/>
<path d="M4890 2445 l0 -65 70 0 70 0 0 65 0 65 -70 0 -70 0 0 -65z"/>
<path d="M1294 2266 c-149 -34 -268 -100 -379 -211 -95 -95 -152 -191 -191
-320 -35 -119 -38 -289 -6 -406 71 -262 274 -465 539 -541 101 -29 285 -31
382 -4 221 61 396 203 491 401 66 135 84 225 77 374 -6 132 -28 219 -84 321
-96 176 -258 311 -448 370 -90 28 -290 37 -381 16z m301 -283 c232 -72 380
-318 332 -549 -81 -381 -529 -523 -808 -257 -266 253 -159 693 196 806 28 9
64 18 80 20 47 7 145 -3 200 -20z"/>
<path d="M1384 1860 c-102 -21 -203 -102 -247 -198 -33 -72 -31 -208 4 -283
99 -211 377 -266 544 -108 90 85 128 197 105 311 -16 83 -42 131 -101 189 -75
73 -203 110 -305 89z"/>
<path d="M3784 2266 c-287 -66 -503 -277 -580 -566 -22 -86 -23 -261 0 -355
48 -203 193 -389 383 -492 118 -64 213 -87 358 -87 220 0 403 78 552 236 137
145 202 315 203 524 0 330 -211 618 -528 722 -96 31 -291 40 -388 18z m301
-283 c165 -51 286 -184 331 -363 37 -147 -14 -319 -131 -436 -63 -63 -129
-102 -214 -126 -170 -47 -339 -2 -467 126 -152 152 -186 365 -88 559 105 206
348 309 569 240z"/>
<path d="M3873 1860 c-87 -18 -181 -85 -226 -163 -101 -176 -31 -400 152 -486
47 -22 70 -26 146 -26 76 0 98 4 145 26 215 103 264 385 97 553 -55 55 -105
81 -182 95 -65 12 -72 12 -132 1z"/>
<path d="M418 1890 c-54 -42 -61 -125 -14 -169 27 -25 76 -41 127 -41 36 0 37
1 49 53 7 28 23 79 36 111 13 33 24 61 24 63 0 2 -44 3 -99 3 -83 0 -102 -3
-123 -20z"/>
<path d="M2277 1873 c9 -21 26 -72 39 -113 l22 -75 360 -3 361 -2 11 42 c9 36
36 120 57 176 4 9 -86 12 -430 12 l-436 0 16 -37z"/>
<path d="M4760 1901 c0 -4 9 -30 19 -57 11 -27 27 -75 36 -108 l16 -58 103 4
c114 4 144 16 172 69 22 43 11 95 -28 131 l-30 28 -144 0 c-79 0 -144 -4 -144
-9z"/>
</g>
</svg>
