<?xml version="1.0" standalone="no"?>
<!DOCTYPE svg PUBLIC "-//W3C//DTD SVG 20010904//EN"
 "http://www.w3.org/TR/2001/REC-SVG-20010904/DTD/svg10.dtd">
<svg version="1.0" xmlns="http://www.w3.org/2000/svg"
 width="512.000000pt" height="512.000000pt" viewBox="0 0 512.000000 512.000000"
 preserveAspectRatio="xMidYMid meet">

<g transform="translate(0.000000,512.000000) scale(0.100000,-0.100000)"
fill="#000000" stroke="none">
<path d="M585 4550 c-43 -18 -78 -67 -83 -118 -5 -58 14 -101 58 -134 l30 -22
-6 -390 -5 -391 -172 -479 c-113 -316 -176 -480 -187 -483 -43 -12 -87 -42
-108 -73 -20 -29 -23 -44 -20 -88 7 -79 53 -122 143 -132 l49 -5 92 -131 c83
-120 96 -144 134 -260 24 -71 44 -131 46 -133 3 -3 253 177 279 200 11 11 -95
123 -137 145 -34 18 -86 17 -118 -1 -14 -8 -28 -14 -32 -15 -4 0 -48 59 -98
132 l-92 131 11 42 c11 45 3 90 -24 132 -16 23 -12 37 100 345 63 177 120 328
125 337 6 10 10 -170 10 -486 l0 -503 50 0 c38 0 50 4 50 15 0 23 89 1113 95
1172 6 46 10 54 47 80 l41 28 -58 7 c-169 22 -241 200 -132 324 40 47 75 63
147 71 l61 6 -67 69 c-52 51 -75 68 -96 68 l-28 0 0 135 c0 126 1 135 21 145
23 13 -9 32 526 -310 l320 -205 -148 -3 -149 -3 0 -119 c0 -89 3 -120 13 -120
6 0 133 -11 281 -24 l269 -24 253 -253 c139 -139 255 -251 257 -249 3 3 18 32
35 65 16 33 80 132 142 219 104 148 111 161 94 173 -10 7 -119 68 -241 134
-254 138 -346 172 -507 189 l-108 12 -482 308 c-407 260 -481 311 -478 328 5
36 -34 110 -70 132 -34 21 -97 26 -133 10z"/>
<path d="M4443 3825 c-61 -26 -73 -62 -73 -217 0 -131 -1 -138 -20 -138 -19 0
-20 -7 -20 -205 l0 -205 90 0 90 0 0 205 c0 198 -1 205 -20 205 -19 0 -20 7
-20 129 0 140 0 141 59 141 30 0 61 27 61 53 0 44 -79 62 -147 32z"/>
<path d="M793 3763 c-30 -6 -73 -59 -73 -89 0 -38 26 -80 57 -92 15 -6 84 -16
153 -22 69 -6 149 -13 178 -16 l53 -6 -3 113 -3 114 -170 1 c-93 1 -180 0
-192 -3z"/>
<path d="M2639 3275 c-79 -112 -161 -235 -181 -272 -41 -73 -98 -213 -98 -238
0 -13 23 -15 164 -15 l164 0 77 -100 76 -100 205 0 204 0 0 465 0 465 -233 0
-233 0 -145 -205z"/>
<path d="M3350 3015 l0 -465 230 0 231 0 -3 446 -3 446 -24 19 c-21 17 -41 19
-227 19 l-204 0 0 -465z"/>
<path d="M4230 2920 l0 -40 190 0 190 0 0 40 0 40 -190 0 -190 0 0 -40z"/>
<path d="M3910 2400 l0 -380 465 0 c523 0 515 -1 535 68 8 24 10 138 8 334
l-3 298 -28 27 -27 28 -475 3 -475 3 0 -381z m368 188 c7 -7 12 -25 12 -40 0
-22 -6 -31 -27 -39 -39 -15 -152 -7 -164 12 -12 20 -11 53 3 67 16 16 160 16
176 0z m390 0 c19 -19 14 -55 -10 -72 -35 -25 -152 -22 -178 4 -23 23 -24 33
-10 61 9 17 22 19 98 19 55 0 92 -4 100 -12z m-390 -180 c14 -14 15 -47 3 -67
-15 -23 -134 -28 -166 -7 -27 18 -33 54 -13 74 7 7 42 12 88 12 46 0 81 -5 88
-12z m392 -2 c18 -22 8 -59 -20 -73 -30 -15 -118 -17 -153 -4 -30 12 -42 43
-27 71 10 18 20 20 99 20 65 0 92 -4 101 -14z m-390 -176 c14 -22 12 -56 -4
-69 -22 -18 -166 -10 -179 10 -14 22 -1 66 21 73 37 10 153 1 162 -14z m378 4
c24 -17 29 -53 10 -72 -8 -8 -45 -12 -100 -12 -78 0 -89 2 -98 20 -15 27 -4
59 23 70 38 15 140 12 165 -6z"/>
<path d="M2325 2638 c-10 -28 -25 -187 -25 -260 l0 -78 475 0 475 0 0 75 0 75
-229 0 -229 0 -77 100 -76 100 -155 0 c-115 0 -156 -3 -159 -12z"/>
<path d="M3350 2375 l0 -75 230 0 231 0 -3 73 -3 72 -227 3 -228 2 0 -75z"/>
<path d="M2300 2060 l0 -140 753 2 752 3 0 135 0 135 -752 3 -753 2 0 -140z
m290 10 l0 -50 -85 0 -85 0 0 50 0 50 85 0 85 0 0 -50z"/>
<path d="M736 1714 c-77 -57 -144 -108 -149 -113 -4 -4 -17 -68 -27 -142 -11
-74 -22 -146 -24 -161 -5 -25 9 -40 142 -159 161 -145 224 -183 335 -201 231
-38 427 119 520 417 25 80 54 232 45 240 -2 2 -39 -18 -82 -45 -44 -29 -88
-50 -104 -50 -54 1 -474 97 -483 111 -4 8 -11 39 -14 69 -4 30 -10 74 -13 96
l-7 42 -139 -104z"/>
<path d="M2910 1720 c0 -96 1 -100 19 -90 35 18 87 12 119 -15 17 -14 35 -25
42 -25 7 0 25 11 42 25 20 17 42 25 68 25 26 0 48 -8 68 -25 17 -14 35 -25 42
-25 7 0 25 11 42 25 20 17 42 25 68 25 26 0 48 -8 68 -25 37 -31 47 -31 85 1
27 22 38 25 79 22 l48 -5 0 93 0 94 -395 0 -395 0 0 -100z"/>
<path d="M2272 1568 c-7 -7 -12 -17 -12 -24 0 -7 -23 -17 -51 -23 -28 -6 -59
-15 -69 -21 -13 -7 -21 -5 -30 5 -29 34 -95 0 -83 -43 6 -25 -84 -110 -122
-114 -39 -4 -61 -43 -41 -73 11 -17 11 -31 -3 -87 -9 -38 -21 -68 -28 -68 -20
0 -45 -47 -38 -69 3 -12 16 -23 28 -26 31 -8 60 -126 41 -164 -18 -34 1 -65
42 -69 37 -4 127 -89 121 -114 -11 -40 51 -76 80 -47 15 15 153 -20 153 -38 0
-7 11 -20 24 -28 29 -19 61 -8 71 25 5 17 15 20 70 20 55 0 65 -3 70 -20 10
-33 42 -44 71 -25 13 8 24 22 24 30 0 12 14 15 60 15 46 0 60 -3 60 -15 0 -8
11 -22 25 -31 23 -15 27 -15 50 0 14 9 25 23 25 31 0 12 14 15 60 15 46 0 60
-3 60 -15 0 -8 11 -22 25 -31 23 -15 27 -15 50 0 14 9 25 23 25 31 0 12 14 15
60 15 46 0 60 -3 60 -15 0 -8 11 -22 25 -31 23 -15 27 -15 50 0 14 9 25 23 25
31 0 12 14 15 60 15 46 0 60 -3 60 -15 0 -8 11 -22 25 -31 23 -15 27 -15 50 0
14 9 25 23 25 31 0 12 14 15 60 15 46 0 60 -3 60 -15 0 -8 11 -22 25 -31 23
-15 27 -15 50 0 14 9 25 23 25 31 0 12 14 15 60 15 46 0 60 -3 60 -15 0 -8 11
-22 25 -31 23 -15 27 -15 50 0 14 9 25 23 25 31 0 12 14 15 60 15 46 0 60 -3
60 -15 0 -8 11 -22 25 -31 23 -15 27 -15 50 0 14 9 25 23 25 31 0 12 14 15 60
15 46 0 60 -3 60 -15 0 -8 11 -22 25 -31 23 -15 27 -15 50 0 14 9 25 23 25 31
0 12 14 15 60 15 46 0 60 -3 60 -15 0 -8 11 -22 25 -31 23 -15 27 -15 50 0 14
9 25 22 25 30 0 18 130 50 144 36 15 -15 62 -12 76 4 6 8 10 25 9 38 -4 34 81
118 119 118 15 0 33 5 40 12 16 16 15 53 -2 67 -20 17 19 144 48 157 14 6 22
20 24 41 3 27 -1 35 -21 44 -31 14 -71 138 -50 158 17 16 17 56 -1 71 -8 6
-25 10 -38 9 -32 -5 -124 87 -119 119 1 13 -3 30 -9 38 -15 18 -55 18 -71 1
-20 -21 -144 19 -158 50 -15 32 -71 29 -86 -4 -8 -20 -17 -23 -66 -23 -50 0
-57 3 -67 26 -10 21 -18 25 -45 22 -22 -2 -35 -10 -42 -25 -8 -20 -17 -23 -65
-23 -48 0 -57 3 -65 23 -8 17 -18 22 -45 22 -27 0 -37 -5 -45 -22 -8 -20 -17
-23 -65 -23 -48 0 -57 3 -65 23 -8 17 -18 22 -45 22 -27 0 -37 -5 -45 -22 -8
-20 -17 -23 -65 -23 -48 0 -57 3 -65 23 -8 17 -18 22 -45 22 -27 0 -37 -5 -45
-22 -8 -20 -17 -23 -65 -23 -48 0 -57 3 -65 23 -7 15 -20 23 -42 25 -27 3 -35
-1 -45 -22 -10 -23 -17 -26 -67 -26 -49 0 -58 3 -66 23 -7 15 -20 23 -42 25
-27 3 -35 -1 -45 -22 -10 -23 -17 -26 -67 -26 -49 0 -58 3 -66 23 -7 15 -20
23 -42 25 -27 3 -35 -1 -45 -22 -10 -23 -17 -26 -67 -26 -49 0 -58 3 -66 23
-7 15 -20 23 -42 25 -27 3 -35 -1 -45 -22 -10 -23 -17 -26 -67 -26 -49 0 -58
3 -66 23 -7 15 -20 23 -42 25 -27 3 -35 -1 -45 -22 -10 -24 -16 -26 -73 -26
-56 0 -63 2 -73 25 -13 27 -58 35 -80 13z m79 -239 c16 -16 28 -19 58 -14 40
7 65 -11 72 -49 2 -10 12 -23 22 -27 9 -5 25 -13 35 -18 12 -6 17 -21 17 -55
0 -35 5 -50 18 -57 23 -14 22 -62 -3 -84 -15 -14 -19 -26 -15 -47 10 -42 -3
-67 -38 -76 -23 -6 -33 -16 -39 -39 -9 -35 -34 -48 -76 -38 -21 4 -33 0 -47
-15 -23 -25 -55 -26 -85 0 -17 15 -31 18 -59 14 -39 -6 -56 5 -62 40 -2 11
-22 29 -44 41 -38 20 -40 23 -37 64 2 34 -2 48 -18 63 -26 24 -26 50 1 74 16
15 20 26 15 53 -6 39 8 71 31 71 23 0 53 29 53 51 0 25 34 41 73 34 25 -5 37
-2 51 14 24 27 50 27 77 0z m737 1 c15 -16 29 -20 63 -18 41 3 44 1 64 -37 12
-22 30 -42 41 -44 36 -6 46 -22 40 -65 -5 -34 -3 -44 14 -58 26 -23 26 -60 0
-83 -16 -14 -19 -26 -14 -52 7 -38 -16 -73 -47 -73 -10 0 -25 -15 -36 -37 -16
-35 -21 -38 -59 -38 -26 0 -49 -7 -61 -17 -26 -24 -65 -23 -86 2 -14 16 -25
19 -55 14 -40 -6 -61 7 -66 43 -2 10 -20 27 -42 38 -37 20 -39 23 -36 64 2 35
-2 47 -18 58 -26 18 -26 58 0 81 17 14 19 24 14 58 -6 43 4 59 40 65 11 2 29
22 41 44 20 38 23 40 64 37 34 -2 48 2 63 18 10 11 27 20 38 20 11 0 28 -9 38
-20z m738 -1 c14 -16 26 -19 51 -14 38 7 73 -8 73 -32 0 -23 29 -53 51 -53 25
0 41 -34 34 -73 -5 -25 -2 -37 14 -51 27 -24 27 -50 1 -74 -16 -15 -20 -29
-18 -63 3 -41 1 -44 -37 -64 -22 -12 -42 -30 -44 -41 -6 -36 -23 -46 -63 -40
-30 5 -41 2 -55 -14 -22 -26 -65 -26 -88 0 -14 15 -26 19 -54 14 -39 -6 -65
12 -73 51 -2 11 -12 21 -23 23 -39 8 -57 34 -51 73 5 28 1 40 -14 54 -26 23
-26 66 0 88 16 14 19 25 14 55 -6 40 4 57 40 63 11 2 29 22 41 44 20 38 23 40
64 37 34 -2 48 2 63 18 24 26 50 26 74 -1z m740 0 c14 -16 26 -19 51 -14 43 8
71 -8 75 -42 2 -22 11 -30 36 -39 43 -13 53 -30 46 -74 -5 -28 -1 -39 15 -54
27 -24 27 -50 0 -75 -17 -15 -20 -27 -15 -53 7 -40 -3 -57 -46 -77 -18 -9 -34
-25 -36 -36 -7 -37 -23 -47 -66 -41 -34 5 -44 3 -58 -14 -23 -26 -60 -26 -83
0 -14 15 -26 19 -47 15 -42 -10 -67 3 -76 37 -6 23 -16 33 -42 42 -33 11 -35
13 -35 58 -1 30 -7 54 -18 66 -22 24 -22 68 1 81 12 7 17 22 17 57 0 47 1 49
55 74 8 4 17 16 19 26 7 39 32 56 74 49 32 -6 41 -4 53 14 19 27 56 27 80 0z"/>
<path d="M2255 1206 c-17 -7 -43 -28 -58 -45 -36 -43 -43 -91 -22 -146 43
-115 201 -128 265 -23 74 122 -55 271 -185 214z"/>
<path d="M2983 1201 c-81 -37 -107 -146 -53 -221 43 -61 139 -79 201 -37 94
62 90 199 -7 254 -48 28 -86 28 -141 4z"/>
<path d="M3722 1203 c-73 -36 -105 -143 -63 -211 76 -119 260 -81 278 58 16
114 -111 204 -215 153z"/>
<path d="M4460 1203 c-136 -70 -87 -283 65 -283 118 0 195 138 128 229 -49 65
-129 87 -193 54z"/>
</g>
</svg>
