<?xml version="1.0" standalone="no"?>
<!DOCTYPE svg PUBLIC "-//W3C//DTD SVG 20010904//EN"
 "http://www.w3.org/TR/2001/REC-SVG-20010904/DTD/svg10.dtd">
<svg version="1.0" xmlns="http://www.w3.org/2000/svg"
 width="512.000000pt" height="512.000000pt" viewBox="0 0 512.000000 512.000000"
 preserveAspectRatio="xMidYMid meet">

<g transform="translate(0.000000,512.000000) scale(0.100000,-0.100000)"
fill="#000000" stroke="none">
<path d="M1013 4400 c-29 -10 -66 -28 -81 -39 -43 -30 -100 -96 -115 -134 -8
-18 -124 -370 -258 -782 l-244 -750 -3 -194 c-4 -220 3 -259 54 -320 l34 -39
0 -181 0 -181 140 0 140 0 0 194 c0 168 2 195 17 207 9 8 24 32 34 54 16 34
19 67 19 216 0 125 4 190 15 225 8 27 155 288 326 579 171 291 322 552 336
580 31 61 42 189 24 278 -18 85 -74 189 -128 237 -78 69 -203 89 -310 50z
m187 -222 c122 -84 66 -268 -81 -268 -71 0 -130 53 -144 130 -8 48 28 117 75
142 48 25 109 23 150 -4z"/>
<path d="M1531 3848 c-7 -24 -53 -112 -102 -196 -49 -84 -89 -157 -89 -161 0
-5 21 -16 48 -26 170 -65 407 -196 567 -314 119 -88 263 -231 325 -323 25 -37
48 -68 51 -68 3 0 20 73 38 163 18 89 39 192 48 230 l15 67 99 0 100 0 -33 46
c-58 81 -204 211 -336 298 -177 118 -367 211 -606 297 -105 38 -110 38 -125
-13z"/>
<path d="M2387 2553 c-66 -318 -121 -588 -124 -600 l-5 -23 1206 0 c663 0
1206 3 1205 8 0 4 -100 124 -222 267 l-223 260 -467 3 -467 2 0 330 0 330
-393 0 -392 0 -118 -577z m703 52 l0 -335 -280 0 c-154 0 -280 3 -280 8 0 4
30 154 67 335 l66 327 214 0 213 0 0 -335z"/>
<path d="M2602 1703 l3 -138 893 -3 892 -2 0 140 0 140 -895 0 -896 0 3 -137z"/>
<path d="M340 1679 c-155 -30 -294 -165 -329 -320 -15 -62 -13 -195 3 -254 28
-106 94 -196 184 -253 93 -58 105 -60 617 -66 259 -3 501 -2 539 3 60 6 73 11
97 39 43 47 41 102 -5 148 l-34 34 -151 0 -151 0 -34 33 c-81 77 -179 193
-204 240 -26 50 -27 59 -30 230 l-4 177 -226 -1 c-125 -1 -247 -5 -272 -10z"/>
<path d="M2170 1455 c-63 -20 -147 -81 -190 -138 -54 -71 -75 -137 -75 -237 0
-74 4 -94 31 -150 37 -79 79 -128 142 -168 102 -65 26 -62 1432 -62 1406 0
1330 -3 1432 62 63 39 105 89 140 164 90 192 5 421 -191 513 l-56 26 -1310 2
c-1100 1 -1317 0 -1355 -12z m213 -201 c122 -85 113 -280 -16 -347 -88 -45
-186 -28 -251 43 -71 79 -73 187 -3 267 70 79 186 96 270 37z m598 8 c94 -49
134 -163 90 -257 -34 -74 -111 -125 -189 -125 -56 0 -134 43 -168 92 -25 36
-29 50 -29 114 0 64 3 77 30 115 63 89 167 113 266 61z m605 9 c145 -66 159
-262 25 -356 -37 -26 -51 -30 -111 -30 -60 0 -74 4 -112 30 -166 117 -89 374
112 374 25 0 63 -8 86 -18z m646 -17 c62 -43 90 -104 86 -180 -5 -82 -38 -132
-109 -168 -60 -30 -113 -33 -167 -10 -105 44 -158 162 -116 262 51 122 202
170 306 96z m583 17 c70 -31 125 -113 125 -186 0 -43 -23 -98 -56 -135 -89
-98 -243 -89 -319 19 -27 38 -30 51 -30 116 0 65 3 78 30 116 57 81 161 111
250 70z"/>
</g>
</svg>
