<svg version="1.1" xmlns="http://www.w3.org/2000/svg" xmlns:xlink="http://www.w3.org/1999/xlink" width="500" height="500" viewBox="0,0,256,256"><defs><clipPath id="clip-1"><path d="M0,0h500v500h-500z" id="a" fill="none"></path></clipPath><clipPath id="clip-2"><path d="M0,0h500v500h-500z" id="b" fill="none"></path></clipPath><clipPath id="clip-3"><path d="M0,0h500v500h-500z" id="c" fill="none"></path></clipPath></defs><g fill="none" fill-rule="nonzero" stroke="none" stroke-width="1" stroke-linecap="butt" stroke-linejoin="miter" stroke-miterlimit="10" stroke-dasharray="" stroke-dashoffset="0" font-family="none" font-weight="none" font-size="none" text-anchor="none" style="mix-blend-mode: normal"><g transform="scale(0.512,0.512)"><g clip-path="url(#clip-1)"><g clip-path="url(#clip-2)"><path transform="translate(344.702,333.213) scale(20.83,20.83)" d="M4.575,-0.995h-6.805l1.848,-1.922c0.38273,-0.3982 0.3702,-1.03127 -0.028,-1.414c-0.3982,-0.38273 -1.03127,-0.3702 -1.414,0.028l-3.472,3.611c-0.37208,0.38708 -0.37208,0.99892 0,1.386l3.472,3.61c0.18846,0.19618 0.44896,0.30674 0.721,0.306c0.40088,0.00003 0.76303,-0.23935 0.9201,-0.60818c0.15707,-0.36883 0.07871,-0.79581 -0.1991,-1.08482l-1.839,-1.912h6.796c0.55228,0 1,-0.44772 1,-1c0,-0.55228 -0.44772,-1 -1,-1zM-3.783,-7.679l-3.469,-3.61c-0.38577,-0.38143 -1.00531,-0.3857 -1.39631,-0.00963c-0.391,0.37607 -0.41082,0.99531 -0.04469,1.39563l1.847,1.923h-6.677c-0.55228,0 -1,0.44772 -1,1c0,0.55228 0.44772,1 1,1h6.667l-1.837,1.912c-0.36613,0.40032 -0.3463,1.01955 0.04469,1.39563c0.391,0.37607 1.01054,0.3718 1.39631,-0.00963l3.469,-3.611c0.37208,-0.38708 0.37208,-0.99892 0,-1.386z" fill="#63ff00"></path></g><g clip-path="url(#clip-3)" opacity="0"><path d="" fill="#000000" visibility="hidden"></path></g><g fill="#000000" visibility="hidden"><path d=""></path><path d=""></path><path d=""></path><path d=""></path><path d=""></path><path d=""></path><path d=""></path><path d=""></path><path d=""></path><path d=""></path><path d=""></path><path d=""></path></g></g></g></g></svg>