<svg version="1.1" xmlns="http://www.w3.org/2000/svg" xmlns:xlink="http://www.w3.org/1999/xlink" width="512.000000pt" height="512.000000pt" viewBox="0,0,256,256"><g fill="#63ff00" fill-rule="nonzero" stroke="none" stroke-width="1" stroke-linecap="butt" stroke-linejoin="miter" stroke-miterlimit="10" stroke-dasharray="" stroke-dashoffset="0" font-family="none" font-weight="none" font-size="none" text-anchor="none" style="mix-blend-mode: normal"><g transform="translate(0.11457,-0.06424) scale(0.5,0.5)"><g transform="translate(0,512) scale(0.1,-0.1)"><path d="M2890,5114c-404,-30 -820,-192 -1140,-445c-149,-117 -344,-332 -448,-494c-323,-499 -413,-1077 -258,-1659c33,-125 94,-277 167,-414c35,-68 59,-126 59,-145c0,-28 -60,-92 -568,-602c-472,-472 -576,-582 -611,-641c-82,-140 -107,-265 -77,-383c20,-77 44,-119 109,-188c159,-170 361,-187 591,-52c59,35 169,139 641,611c510,508 574,568 602,568c19,0 77,-24 145,-59c290,-153 566,-227 883,-238c440,-15 823,91 1190,329c162,104 377,299 494,448c230,291 376,637 432,1025c19,127 16,443 -5,574c-62,393 -216,735 -464,1031c-321,385 -778,639 -1282,715c-104,16 -360,26 -460,19zM3295,4555c230,-36 463,-134 657,-276c105,-78 266,-241 342,-347c383,-538 373,-1282 -24,-1810c-300,-399 -793,-632 -1284,-609c-402,19 -748,170 -1026,447c-603,604 -599,1579 11,2177c353,346 826,495 1324,418z"></path><path d="M2987,4279c-463,-51 -866,-340 -1071,-769c-55,-114 -48,-205 22,-276c62,-62 169,-82 240,-44c62,33 78,51 137,159c71,131 128,205 215,280c267,230 614,289 953,163c94,-35 170,-25 234,31c88,77 98,222 20,305c-45,48 -194,105 -354,136c-106,20 -287,27 -396,15z"></path></g></g></g></svg>