<svg version="1.1" xmlns="http://www.w3.org/2000/svg" xmlns:xlink="http://www.w3.org/1999/xlink" width="512.000000pt" height="512.000000pt" viewBox="0,0,256,256"><g fill="#63fa00" fill-rule="nonzero" stroke="none" stroke-width="1" stroke-linecap="butt" stroke-linejoin="miter" stroke-miterlimit="10" stroke-dasharray="" stroke-dashoffset="0" font-family="none" font-weight="none" font-size="none" text-anchor="none" style="mix-blend-mode: normal"><g transform="translate(0.07019,0.12349) scale(0.5,0.5)"><g transform="translate(0,512) scale(0.1,-0.1)"><path d="M2895,4265l-550,-94h-600h-600l-572,-183l-573,-183v-227c0,-137 4,-228 9,-228c6,0 263,81 572,180l563,180h593h594l569,95l569,95h571h570v230v230l-582,-1l-583,-1z"></path><path d="M3540,3753c-39,-13 -62,-29 -81,-59c-15,-25 -50,-209 -148,-791l-128,-758l20,-41l20,-41l75,79c183,191 419,287 682,275c246,-11 456,-108 623,-287l74,-80h94c70,0 103,5 129,18c48,24 80,75 80,128v44h-84c-75,0 -88,3 -113,24l-28,24v157v157l28,24c24,21 38,24 103,24c41,0 74,4 74,10c0,5 -42,43 -92,84c-51,41 -99,85 -107,98c-8,13 -51,207 -97,431c-70,348 -86,412 -106,434c-48,53 -52,53 -545,52c-252,0 -465,-3 -473,-6zM4454,3656c19,-8 37,-25 44,-42c15,-37 92,-418 92,-457c0,-18 -10,-39 -29,-58l-29,-29h-510c-493,0 -510,1 -535,20c-13,11 -28,31 -31,44c-3,13 12,126 33,251c40,232 48,256 96,276c11,4 204,8 428,8c325,1 414,-2 441,-13z"></path><path d="M3631,3393c-13,-76 -25,-148 -28,-160l-5,-23h422h422l-5,23c-3,12 -18,84 -33,160l-27,137h-362h-362z"></path><path d="M2800,3649l-465,-78l-599,-1h-598l-362,-116c-198,-63 -382,-122 -409,-130l-47,-16v-258v-258l254,-183l255,-184v-127l1,-128l67,55c83,66 224,138 329,167c64,17 107,21 229,21c134,0 159,-2 238,-26c174,-54 316,-142 427,-268l62,-69h445c420,0 445,1 438,18c-4,9 -12,28 -17,42c-6,19 26,223 126,800c74,426 138,785 141,798c7,19 4,22 -21,21c-16,-1 -238,-37 -494,-80z"></path><path d="M4890,2445v-65h70h70v65v65h-70h-70z"></path><path d="M1294,2266c-149,-34 -268,-100 -379,-211c-95,-95 -152,-191 -191,-320c-35,-119 -38,-289 -6,-406c71,-262 274,-465 539,-541c101,-29 285,-31 382,-4c221,61 396,203 491,401c66,135 84,225 77,374c-6,132 -28,219 -84,321c-96,176 -258,311 -448,370c-90,28 -290,37 -381,16zM1595,1983c232,-72 380,-318 332,-549c-81,-381 -529,-523 -808,-257c-266,253 -159,693 196,806c28,9 64,18 80,20c47,7 145,-3 200,-20z"></path><path d="M1384,1860c-102,-21 -203,-102 -247,-198c-33,-72 -31,-208 4,-283c99,-211 377,-266 544,-108c90,85 128,197 105,311c-16,83 -42,131 -101,189c-75,73 -203,110 -305,89z"></path><path d="M3784,2266c-287,-66 -503,-277 -580,-566c-22,-86 -23,-261 0,-355c48,-203 193,-389 383,-492c118,-64 213,-87 358,-87c220,0 403,78 552,236c137,145 202,315 203,524c0,330 -211,618 -528,722c-96,31 -291,40 -388,18zM4085,1983c165,-51 286,-184 331,-363c37,-147 -14,-319 -131,-436c-63,-63 -129,-102 -214,-126c-170,-47 -339,-2 -467,126c-152,152 -186,365 -88,559c105,206 348,309 569,240z"></path><path d="M3873,1860c-87,-18 -181,-85 -226,-163c-101,-176 -31,-400 152,-486c47,-22 70,-26 146,-26c76,0 98,4 145,26c215,103 264,385 97,553c-55,55 -105,81 -182,95c-65,12 -72,12 -132,1z"></path><path d="M418,1890c-54,-42 -61,-125 -14,-169c27,-25 76,-41 127,-41c36,0 37,1 49,53c7,28 23,79 36,111c13,33 24,61 24,63c0,2 -44,3 -99,3c-83,0 -102,-3 -123,-20z"></path><path d="M2277,1873c9,-21 26,-72 39,-113l22,-75l360,-3l361,-2l11,42c9,36 36,120 57,176c4,9 -86,12 -430,12h-436z"></path><path d="M4760,1901c0,-4 9,-30 19,-57c11,-27 27,-75 36,-108l16,-58l103,4c114,4 144,16 172,69c22,43 11,95 -28,131l-30,28h-144c-79,0 -144,-4 -144,-9z"></path></g></g></g></svg>