<svg version="1.1" xmlns="http://www.w3.org/2000/svg" xmlns:xlink="http://www.w3.org/1999/xlink" width="512.000000pt" height="512.000000pt" viewBox="0,0,256,256"><g fill="#63ff00" fill-rule="nonzero" stroke="none" stroke-width="1" stroke-linecap="butt" stroke-linejoin="miter" stroke-miterlimit="10" stroke-dasharray="" stroke-dashoffset="0" font-family="none" font-weight="none" font-size="none" text-anchor="none" style="mix-blend-mode: normal"><g transform="translate(0.03283,-0.00774) scale(0.5,0.5)"><g transform="translate(0,512) scale(0.1,-0.1)"><path d="M1013,4400c-29,-10 -66,-28 -81,-39c-43,-30 -100,-96 -115,-134c-8,-18 -124,-370 -258,-782l-244,-750l-3,-194c-4,-220 3,-259 54,-320l34,-39v-181v-181h140h140v194c0,168 2,195 17,207c9,8 24,32 34,54c16,34 19,67 19,216c0,125 4,190 15,225c8,27 155,288 326,579c171,291 322,552 336,580c31,61 42,189 24,278c-18,85 -74,189 -128,237c-78,69 -203,89 -310,50zM1200,4178c122,-84 66,-268 -81,-268c-71,0 -130,53 -144,130c-8,48 28,117 75,142c48,25 109,23 150,-4z"></path><path d="M1531,3848c-7,-24 -53,-112 -102,-196c-49,-84 -89,-157 -89,-161c0,-5 21,-16 48,-26c170,-65 407,-196 567,-314c119,-88 263,-231 325,-323c25,-37 48,-68 51,-68c3,0 20,73 38,163c18,89 39,192 48,230l15,67h99h100l-33,46c-58,81 -204,211 -336,298c-177,118 -367,211 -606,297c-105,38 -110,38 -125,-13z"></path><path d="M2387,2553c-66,-318 -121,-588 -124,-600l-5,-23h1206c663,0 1206,3 1205,8c0,4 -100,124 -222,267l-223,260l-467,3l-467,2v330v330h-393h-392zM3090,2605v-335h-280c-154,0 -280,3 -280,8c0,4 30,154 67,335l66,327h214h213z"></path><path d="M2602,1703l3,-138l893,-3l892,-2v140v140h-895h-896z"></path><path d="M340,1679c-155,-30 -294,-165 -329,-320c-15,-62 -13,-195 3,-254c28,-106 94,-196 184,-253c93,-58 105,-60 617,-66c259,-3 501,-2 539,3c60,6 73,11 97,39c43,47 41,102 -5,148l-34,34h-151h-151l-34,33c-81,77 -179,193 -204,240c-26,50 -27,59 -30,230l-4,177l-226,-1c-125,-1 -247,-5 -272,-10z"></path><path d="M2170,1455c-63,-20 -147,-81 -190,-138c-54,-71 -75,-137 -75,-237c0,-74 4,-94 31,-150c37,-79 79,-128 142,-168c102,-65 26,-62 1432,-62c1406,0 1330,-3 1432,62c63,39 105,89 140,164c90,192 5,421 -191,513l-56,26l-1310,2c-1100,1 -1317,0 -1355,-12zM2383,1254c122,-85 113,-280 -16,-347c-88,-45 -186,-28 -251,43c-71,79 -73,187 -3,267c70,79 186,96 270,37zM2981,1262c94,-49 134,-163 90,-257c-34,-74 -111,-125 -189,-125c-56,0 -134,43 -168,92c-25,36 -29,50 -29,114c0,64 3,77 30,115c63,89 167,113 266,61zM3586,1271c145,-66 159,-262 25,-356c-37,-26 -51,-30 -111,-30c-60,0 -74,4 -112,30c-166,117 -89,374 112,374c25,0 63,-8 86,-18zM4232,1254c62,-43 90,-104 86,-180c-5,-82 -38,-132 -109,-168c-60,-30 -113,-33 -167,-10c-105,44 -158,162 -116,262c51,122 202,170 306,96zM4815,1271c70,-31 125,-113 125,-186c0,-43 -23,-98 -56,-135c-89,-98 -243,-89 -319,19c-27,38 -30,51 -30,116c0,65 3,78 30,116c57,81 161,111 250,70z"></path></g></g></g></svg>