<svg version="1.1" xmlns="http://www.w3.org/2000/svg" xmlns:xlink="http://www.w3.org/1999/xlink" width="500" height="500" viewBox="0,0,256,256"><defs><clipPath id="clip-1"><path d="M0,0h500v500h-500z" id="a" fill="none"></path></clipPath><clipPath id="clip-2"><path d="M0,0h500v500h-500z" id="b" fill="none"></path></clipPath><clipPath id="clip-3"><path d="M0,0h500v500h-500z" id="c" fill="none"></path></clipPath><clipPath id="clip-4"><path d="M0,0h500v500h-500z" id="d" fill="none"></path></clipPath><clipPath id="clip-5"><path d="M0,0h500v500h-500z" id="e" fill="none"></path></clipPath></defs><g fill="none" fill-rule="nonzero" stroke="none" stroke-width="1" stroke-linecap="butt" stroke-linejoin="miter" stroke-miterlimit="10" stroke-dasharray="" stroke-dashoffset="0" font-family="none" font-weight="none" font-size="none" text-anchor="none" style="mix-blend-mode: normal"><g transform="scale(0.512,0.512)"><g clip-path="url(#clip-1)"><g clip-path="url(#clip-2)" opacity="0"><path transform="translate(374.981,302.075) scale(20.83,20.83)" d="M0.973,-6.5h-1.946c-0.567,0 -1.027,0.46 -1.027,1.027v10.946c0,0.567 0.46,1.027 1.027,1.027h1.946c0.567,0 1.027,-0.46 1.027,-1.027v-10.946c0,-0.567 -0.46,-1.027 -1.027,-1.027z" fill="#63ff00"></path><path transform="translate(250,260.415) scale(20.83,20.83)" d="M0.826,-8.5h-1.652c-0.648,0 -1.174,0.525 -1.174,1.174v14.652c0,0.648 0.526,1.174 1.174,1.174h1.652c0.648,0 1.174,-0.526 1.174,-1.174v-14.652c0,-0.649 -0.526,-1.174 -1.174,-1.174z" fill="#63ff00"></path><path transform="translate(125.02,343.735) scale(20.83,20.83)" d="M1.146,-4.5h-2.292c-0.47165,0 -0.854,0.38235 -0.854,0.854v7.292c0,0.472 0.382,0.854 0.854,0.854h2.292c0.47165,0 0.854,-0.38235 0.854,-0.854v-7.292c0,-0.47165 -0.38235,-0.854 -0.854,-0.854z" fill="#63ff00"></path></g><g clip-path="url(#clip-3)" opacity="0"><path transform="translate(374.981,302.075) scale(20.83,20.83)" d="M0.973,-6.5h-1.946c-0.567,0 -1.027,0.46 -1.027,1.027v10.946c0,0.567 0.46,1.027 1.027,1.027h1.946c0.567,0 1.027,-0.46 1.027,-1.027v-10.946c0,-0.567 -0.46,-1.027 -1.027,-1.027z" fill="#63ff00"></path><path transform="translate(250,260.415) scale(20.83,20.83)" d="M0.826,-8.5h-1.652c-0.648,0 -1.174,0.525 -1.174,1.174v14.652c0,0.648 0.526,1.174 1.174,1.174h1.652c0.648,0 1.174,-0.526 1.174,-1.174v-14.652c0,-0.649 -0.526,-1.174 -1.174,-1.174z" fill="#63ff00"></path><path transform="translate(125.02,343.735) scale(20.83,20.83)" d="M1.146,-4.5h-2.292c-0.47165,0 -0.854,0.38235 -0.854,0.854v7.292c0,0.472 0.382,0.854 0.854,0.854h2.292c0.47165,0 0.854,-0.38235 0.854,-0.854v-7.292c0,-0.47165 -0.38235,-0.854 -0.854,-0.854z" fill="#63ff00"></path></g><g clip-path="url(#clip-4)"><path transform="translate(374.981,302.075) scale(20.83,20.83)" d="M0.973,-6.5h-1.946c-0.567,0 -1.027,0.46 -1.027,1.027v10.946c0,0.567 0.46,1.027 1.027,1.027h1.946c0.567,0 1.027,-0.46 1.027,-1.027v-10.946c0,-0.567 -0.46,-1.027 -1.027,-1.027z" fill="#63ff00"></path><path transform="translate(250,260.415) scale(20.83,20.83)" d="M0.826,-8.5h-1.652c-0.648,0 -1.174,0.525 -1.174,1.174v14.652c0,0.648 0.526,1.174 1.174,1.174h1.652c0.648,0 1.174,-0.526 1.174,-1.174v-14.652c0,-0.649 -0.526,-1.174 -1.174,-1.174z" fill="#63ff00"></path><path transform="translate(125.02,343.735) scale(20.83,20.83)" d="M1.146,-4.5h-2.292c-0.47165,0 -0.854,0.38235 -0.854,0.854v7.292c0,0.472 0.382,0.854 0.854,0.854h2.292c0.47165,0 0.854,-0.38235 0.854,-0.854v-7.292c0,-0.47165 -0.38235,-0.854 -0.854,-0.854z" fill="#63ff00"></path></g><g clip-path="url(#clip-5)" opacity="0"><path d="" fill="#000000" visibility="hidden"></path><path d="" fill="#000000" visibility="hidden"></path><path d="" fill="#000000" visibility="hidden"></path></g><g fill="#000000" visibility="hidden"><path d=""></path><path d=""></path><path d=""></path><path d=""></path><path d=""></path><path d=""></path><path d=""></path><path d=""></path><path d=""></path><path d=""></path><path d=""></path><path d=""></path></g></g></g></g></svg>