<svg version="1.1" xmlns="http://www.w3.org/2000/svg" xmlns:xlink="http://www.w3.org/1999/xlink" width="512.000000pt" height="512.000000pt" viewBox="0,0,256,256"><g fill="#5fff00" fill-rule="nonzero" stroke="none" stroke-width="1" stroke-linecap="butt" stroke-linejoin="miter" stroke-miterlimit="10" stroke-dasharray="" stroke-dashoffset="0" font-family="none" font-weight="none" font-size="none" text-anchor="none" style="mix-blend-mode: normal"><g transform="translate(-0.01016,-0.03507) scale(0.5,0.5)"><g transform="translate(0,512) scale(0.1,-0.1)"><path d="M2439,5010c-559,-56 -1009,-459 -1130,-1010c-30,-135 -33,-367 -6,-503c108,-545 545,-955 1095,-1028c107,-14 320,-7 420,15c510,111 898,505 999,1013c23,121 24,357 0,475c-91,455 -402,817 -835,972c-155,55 -381,83 -543,66z"></path><path d="M2410,2353c-619,-45 -1204,-347 -1583,-818c-286,-355 -456,-768 -498,-1210c-12,-135 -7,-163 38,-192c26,-17 96,-18 1248,-26c1700,-10 2990,3 3125,31c57,12 65,41 51,186c-72,760 -530,1437 -1206,1785c-357,184 -786,273 -1175,244z"></path></g></g></g></svg>