<svg version="1.1" xmlns="http://www.w3.org/2000/svg" xmlns:xlink="http://www.w3.org/1999/xlink" width="512.000000pt" height="512.000000pt" viewBox="0,0,256,256"><g fill="#63ff00" fill-rule="nonzero" stroke="none" stroke-width="1" stroke-linecap="butt" stroke-linejoin="miter" stroke-miterlimit="10" stroke-dasharray="" stroke-dashoffset="0" font-family="none" font-weight="none" font-size="none" text-anchor="none" style="mix-blend-mode: normal"><g transform="translate(-0.04369,0.1152) scale(0.5,0.5)"><g transform="translate(0,512) scale(0.1,-0.1)"><path d="M3595,5109c-430,-55 -825,-334 -1025,-724c-116,-228 -168,-500 -141,-748c10,-90 34,-206 66,-313c5,-17 -165,-176 -1129,-1048c-624,-565 -1160,-1054 -1190,-1087c-64,-71 -115,-164 -148,-269c-19,-63 -23,-95 -22,-205c0,-148 21,-228 89,-352c50,-90 178,-218 268,-268c123,-68 203,-88 352,-89c110,-1 142,3 205,22c106,33 198,84 270,149c34,31 523,566 1088,1190c866,958 1029,1133 1046,1128c213,-63 389,-84 565,-67c340,34 625,171 857,415c182,191 292,403 351,677c37,177 17,524 -37,630c-32,62 -92,89 -167,75c-33,-6 -77,-45 -323,-290l-285,-283l-259,52c-175,35 -262,56 -267,66c-5,8 -31,128 -58,265l-50,250l284,285c244,245 284,290 290,323c19,98 -32,166 -142,191c-156,35 -335,44 -488,25zM804,876c90,-38 115,-166 45,-235c-65,-65 -158,-63 -218,4c-41,47 -49,95 -25,154c32,77 118,110 198,77z"></path></g></g></g></svg>