<svg version="1.1" xmlns="http://www.w3.org/2000/svg" xmlns:xlink="http://www.w3.org/1999/xlink" width="512" height="512" viewBox="0,0,256,256"><g fill="#63ff00" fill-rule="nonzero" stroke="none" stroke-width="1" stroke-linecap="butt" stroke-linejoin="miter" stroke-miterlimit="10" stroke-dasharray="" stroke-dashoffset="0" font-family="none" font-weight="none" font-size="none" text-anchor="none" style="mix-blend-mode: normal"><g transform="scale(0.5,0.5)"><g><path d="M490.667,234.667h-42.667v-42.667c0,-11.782 -9.551,-21.333 -21.333,-21.333c-11.782,0 -21.333,9.551 -21.333,21.333v42.667h-42.667c-11.782,0 -21.333,9.551 -21.333,21.333c0,11.782 9.551,21.333 21.333,21.333h42.667v42.667c0,11.782 9.551,21.333 21.333,21.333c11.782,0 21.333,-9.551 21.333,-21.333v-42.667h42.667c11.782,0 21.333,-9.551 21.333,-21.333c0,-11.782 -9.551,-21.333 -21.333,-21.333z"></path><circle cx="192" cy="128" r="128"></circle><path d="M192,298.667c-105.99,0.118 -191.882,86.01 -192,192c0,11.782 9.551,21.333 21.333,21.333h341.333c11.782,0 21.333,-9.551 21.333,-21.333c-0.117,-105.99 -86.009,-191.883 -191.999,-192z"></path></g></g></g></svg>