<svg version="1.1" xmlns="http://www.w3.org/2000/svg" xmlns:xlink="http://www.w3.org/1999/xlink" width="512.000000pt" height="512.000000pt" viewBox="0,0,256,256"><g fill="#63ff00" fill-rule="nonzero" stroke="none" stroke-width="1" stroke-linecap="butt" stroke-linejoin="miter" stroke-miterlimit="10" stroke-dasharray="" stroke-dashoffset="0" font-family="none" font-weight="none" font-size="none" text-anchor="none" style="mix-blend-mode: normal"><g transform="translate(0,-0.02067) scale(0.5,0.5)"><g transform="translate(0,512) scale(0.1,-0.1)"><path d="M2499,5107c-15,-7 -574,-389 -1243,-851c-1057,-728 -1219,-843 -1236,-877c-20,-37 -20,-68 -20,-1615c0,-1219 3,-1586 12,-1618c16,-53 81,-118 134,-134c27,-8 118,-12 268,-12h226v1300c0,1153 2,1305 16,1338c19,47 58,88 106,113c36,18 85,19 1798,19c1713,0 1762,-1 1798,-19c48,-25 87,-66 106,-113c14,-33 16,-185 16,-1338v-1300h226c150,0 241,4 268,12c53,16 118,81 134,134c9,32 12,399 12,1620v1579l-23,39c-18,33 -217,173 -1245,881c-673,464 -1234,846 -1245,849c-34,9 -80,6 -108,-7z"></path><path d="M1983,2335c-64,-28 -64,-25 -61,-535l3,-460l28,-27l27,-28h580h580l27,28l28,27l3,460c2,405 1,464 -13,491c-27,52 -62,59 -274,59h-189l-4,-109c-2,-92 -6,-114 -24,-138c-73,-98 -195,-98 -268,0c-18,24 -22,46 -24,138l-4,109h-191c-141,-1 -200,-4 -224,-15z"></path><path d="M1233,1054c-62,-31 -63,-35 -63,-518c0,-480 1,-491 59,-520c26,-14 101,-16 586,-16c502,0 560,2 585,17c16,9 33,27 39,40c7,16 11,174 11,482c0,447 0,459 -21,484c-32,41 -76,48 -274,45l-180,-3l-5,-110c-4,-93 -8,-115 -27,-141c-46,-64 -149,-84 -214,-41c-56,37 -79,95 -79,204v93h-192c-155,0 -199,-4 -225,-16z"></path><path d="M2734,1056c-66,-29 -64,-13 -64,-518c0,-307 4,-465 11,-481c6,-13 23,-31 39,-40c25,-15 83,-17 585,-17c485,0 560,2 586,16c58,29 59,40 59,520c0,485 0,488 -65,518c-26,13 -71,16 -223,16h-190l-4,-103c-4,-116 -20,-156 -78,-194c-63,-43 -167,-23 -213,41c-19,26 -23,48 -27,141l-5,110l-190,2c-143,2 -198,-1 -221,-11z"></path></g></g></g></svg>