<svg version="1.1" xmlns="http://www.w3.org/2000/svg" xmlns:xlink="http://www.w3.org/1999/xlink" width="512" height="512" viewBox="0,0,256,256"><g fill="#000000" fill-rule="nonzero" stroke="none" stroke-width="1" stroke-linecap="butt" stroke-linejoin="miter" stroke-miterlimit="10" stroke-dasharray="" stroke-dashoffset="0" font-family="none" font-weight="none" font-size="none" text-anchor="none" style="mix-blend-mode: normal"><g transform="translate(0.06554,0) scale(10.66667,10.66667)"><path d="M3,6c0,-3.31371 2.68629,-6 6,-6c3.31371,0 6,2.68629 6,6c0,3.31371 -2.68629,6 -6,6c-3.31234,-0.00331 -5.99669,-2.68766 -6,-6zM9,14c-4.96828,0.00551 -8.99449,4.03172 -9,9c0,0.55228 0.44772,1 1,1h16c0.55228,0 1,-0.44772 1,-1c-0.00551,-4.96828 -4.03172,-8.99449 -9,-9zM21.414,12l2.293,-2.293c0.37897,-0.39238 0.37355,-1.01608 -0.01218,-1.40182c-0.38573,-0.38573 -1.00944,-0.39115 -1.40182,-0.01218l-2.293,2.293l-2.293,-2.293c-0.39238,-0.37897 -1.01608,-0.37355 -1.40182,0.01218c-0.38573,0.38573 -0.39115,1.00944 -0.01218,1.40182l2.293,2.293l-2.293,2.293c-0.25996,0.25107 -0.36421,0.62288 -0.2727,0.97251c0.09152,0.34963 0.36456,0.62267 0.71419,0.71419c0.34963,0.09152 0.72143,-0.01274 0.97251,-0.2727l2.293,-2.293l2.293,2.293c0.39238,0.37897 1.01608,0.37355 1.40182,-0.01218c0.38573,-0.38573 0.39115,-1.00944 0.01218,-1.40182z"></path></g></g></svg>