<svg version="1.1" xmlns="http://www.w3.org/2000/svg" xmlns:xlink="http://www.w3.org/1999/xlink" width="512.000000pt" height="512.000000pt" viewBox="0,0,256,256"><g fill="#63ff00" fill-rule="nonzero" stroke="none" stroke-width="1" stroke-linecap="butt" stroke-linejoin="miter" stroke-miterlimit="10" stroke-dasharray="" stroke-dashoffset="0" font-family="none" font-weight="none" font-size="none" text-anchor="none" style="mix-blend-mode: normal"><g transform="translate(0.03644,-0.0414) scale(0.5,0.5)"><g transform="translate(0,512) scale(0.1,-0.1)"><path d="M395,5076c-170,-41 -316,-188 -355,-356c-28,-120 -7,-261 54,-364c14,-23 419,-435 900,-916l876,-875l-888,-890c-956,-958 -930,-929 -967,-1070c-29,-115 -13,-234 47,-347c94,-177 315,-263 549,-214c140,30 103,-3 1054,947c484,483 885,879 890,879c5,0 406,-395 890,-879c816,-815 885,-881 945,-909c207,-96 457,-57 600,94c135,142 166,360 78,543c-29,61 -99,133 -927,958l-896,891l871,874c543,544 881,890 897,918c44,78 60,152 55,259c-6,115 -30,185 -93,269c-123,163 -346,232 -540,166c-111,-37 -161,-84 -1029,-953l-850,-850l-875,872c-941,936 -918,916 -1056,952c-69,18 -160,18 -230,1z"></path></g></g></g></svg>