<?xml version="1.0" standalone="no"?>
<!DOCTYPE svg PUBLIC "-//W3C//DTD SVG 20010904//EN"
 "http://www.w3.org/TR/2001/REC-SVG-20010904/DTD/svg10.dtd">
<svg version="1.0" xmlns="http://www.w3.org/2000/svg"
 width="512.000000pt" height="512.000000pt" viewBox="0 0 512.000000 512.000000"
 preserveAspectRatio="xMidYMid meet">

<g transform="translate(0.000000,512.000000) scale(0.100000,-0.100000)"
fill="#000000" stroke="none">
<path d="M3595 5109 c-430 -55 -825 -334 -1025 -724 -116 -228 -168 -500 -141
-748 10 -90 34 -206 66 -313 5 -17 -165 -176 -1129 -1048 -624 -565 -1160
-1054 -1190 -1087 -64 -71 -115 -164 -148 -269 -19 -63 -23 -95 -22 -205 0
-148 21 -228 89 -352 50 -90 178 -218 268 -268 123 -68 203 -88 352 -89 110
-1 142 3 205 22 106 33 198 84 270 149 34 31 523 566 1088 1190 866 958 1029
1133 1046 1128 213 -63 389 -84 565 -67 340 34 625 171 857 415 182 191 292
403 351 677 37 177 17 524 -37 630 -32 62 -92 89 -167 75 -33 -6 -77 -45 -323
-290 l-285 -283 -259 52 c-175 35 -262 56 -267 66 -5 8 -31 128 -58 265 l-50
250 284 285 c244 245 284 290 290 323 19 98 -32 166 -142 191 -156 35 -335 44
-488 25z m-2791 -4233 c90 -38 115 -166 45 -235 -65 -65 -158 -63 -218 4 -41
47 -49 95 -25 154 32 77 118 110 198 77z"/>
</g>
</svg>
